<svg width="37" height="37" viewBox="0 0 148 216" fill="none" xmlns="http://www.w3.org/2000/svg">
<path d="M129.04 74.0005C136.44 69.4254 142.147 62.5613 145.293 54.4496C148.44 46.3379 148.855 37.4213 146.476 29.0523C144.096 20.6834 139.052 13.3189 132.108 8.07606C125.165 2.83323 116.701 -0.00183121 108 0.000978649H40C31.2994 -0.00183121 22.8352 2.83323 15.8916 8.07606C8.94803 13.3189 3.90389 20.6834 1.52444 29.0523C-0.85502 37.4213 -0.439943 46.3379 2.7067 54.4496C5.85333 62.5613 11.5598 69.4254 18.9604 74.0005C13.1638 77.5814 8.37889 82.5849 5.06037 88.5357C1.74185 94.4865 -9.81919e-05 101.187 4.15135e-09 108C9.82002e-05 114.814 1.74224 121.514 5.06093 127.465C8.37962 133.416 13.1646 138.419 18.9614 142C13.0359 145.667 8.17136 150.819 4.84998 156.945C1.52859 163.071 -0.134408 169.959 0.0257683 176.926C0.185945 183.893 2.16374 190.697 5.76316 196.664C9.36259 202.631 14.4587 207.554 20.5466 210.945C26.6344 214.336 33.5027 216.077 40.4708 215.996C47.4389 215.916 54.265 214.016 60.2727 210.484C66.2804 206.953 71.2611 201.914 74.7213 195.865C78.1816 189.816 80.0012 182.968 80 175.999V136.529C84.013 140.472 88.8128 143.523 94.0857 145.484C99.3586 147.444 104.986 148.27 110.6 147.907C116.214 147.544 121.688 146 126.664 143.377C131.641 140.753 136.007 137.109 139.479 132.682C142.951 128.256 145.449 123.146 146.811 117.688C148.173 112.23 148.367 106.546 147.382 101.007C146.397 95.4683 144.254 90.1999 141.093 85.5462C137.932 80.8925 133.825 76.9582 129.04 74.0005V74.0005ZM136 40.001C135.992 47.421 133.042 54.5351 127.797 59.7837C122.552 65.0322 115.44 67.9871 108.02 68.0005L108 68L107.961 68.001L80 68V12.001H108C115.424 12.0093 122.541 14.962 127.79 20.2112C133.039 25.4604 135.992 32.5775 136 40.001V40.001ZM12 40.001C12.0083 32.5775 14.961 25.4604 20.2102 20.2112C25.4594 14.962 32.5765 12.0093 40 12.001H68V68H40L39.981 68.0005C32.5609 67.9871 25.4487 65.0324 20.2036 59.7838C14.9585 54.5352 12.0084 47.4211 12 40.001V40.001ZM12 108C12.0084 100.58 14.9585 93.4657 20.2036 88.2171C25.4487 82.9686 32.5609 80.0138 39.981 80.0005L40 80.001L68 80.0002V135.999L40 136C32.5765 135.992 25.4594 133.039 20.2102 127.79C14.961 122.541 12.0083 115.423 12 108V108ZM40 203.999C36.3211 204.002 32.6776 203.28 29.2778 201.874C25.878 200.469 22.7886 198.407 20.1861 195.806C17.5836 193.206 15.519 190.118 14.1104 186.72C12.7018 183.321 11.9768 179.678 11.9768 175.999C11.9768 172.321 12.7018 168.678 14.1104 165.279C15.519 161.88 17.5836 158.793 20.1861 156.192C22.7886 153.592 25.878 151.53 29.2778 150.125C32.6776 148.719 36.3211 147.997 40 148L68 147.999V175.999C67.9916 183.423 65.0388 190.54 59.7896 195.789C54.5404 201.038 47.4234 203.991 40 203.999V203.999ZM108 136C100.579 135.998 93.462 133.05 88.2134 127.803C82.9647 122.557 80.0137 115.441 80.0085 108.02C80.0034 100.599 82.9447 93.4789 88.1861 88.2251C93.4275 82.9714 100.54 80.0133 107.961 80.001H108L108.019 80.0005C115.44 80.0103 122.554 82.9658 127.797 88.2178C133.041 93.4698 135.984 100.588 135.982 108.01C135.979 115.431 133.031 122.548 127.784 127.796C122.537 133.044 115.421 135.995 108 136V136Z" fill="#A9A9A9"/>
</svg>
