<svg  viewBox="0 0 629 558" fill="none" xmlns="http://www.w3.org/2000/svg">
<path d="M444.806 72.1577C469.408 124.236 450.237 192.929 443.208 254.592C436.499 316.575 441.611 371.21 417.009 423.608C392.089 476.006 337.454 526.167 283.458 524.889C229.782 523.931 177.384 471.533 129.459 419.135C81.5345 366.737 38.0825 314.339 52.1405 275.679C66.1985 237.02 137.766 212.738 185.691 160.34C233.616 108.261 257.898 28.7057 304.545 6.66019C351.193 -15.3853 419.885 20.0792 444.806 72.1577Z" fill="#F2F4F8"/>
<path d="M319.421 442.367C329.987 432.997 349.908 417.292 360.013 419.376C370.118 421.459 370.407 441.329 367.735 458.645C364.993 475.89 359.43 490.58 349.283 501.507C339.065 512.505 324.475 519.812 305.795 523.712C287.115 527.612 264.556 528.175 252.712 517.106C241.01 506.038 240.022 483.478 250.808 471.633C261.594 459.788 284.084 458.729 295.899 456.717C307.714 454.704 308.855 451.738 319.421 442.367Z" fill="#E56B6F"/>
<path d="M240.751 66.8629C268.931 84.9334 302.1 99.5783 299.855 115.186C297.585 130.644 259.926 147.215 238.353 170.881C216.755 194.397 211.267 225.158 191.029 240.909C170.767 256.509 135.779 257.249 113.99 240.607C92.2006 223.965 83.6582 190.241 86.1125 161.665C88.7412 133.215 102.066 109.961 117.099 84.8907C132.107 59.6704 148.799 32.4836 168.828 29.7012C188.881 27.0689 212.397 48.6666 240.751 66.8629Z" fill="#3772FF"/>
<path d="M472.7 79.3212C479.5 94.2212 477.1 110.221 474.2 123.221C471.3 136.321 467.9 146.421 461.1 147.921C454.3 149.321 444.2 142.021 428.4 147.721C412.6 153.321 391.1 171.821 376 170.421C360.9 169.021 352.2 147.521 356.8 130.721C361.4 113.921 379.4 101.721 394.5 86.8212C409.6 71.9212 421.8 54.2212 435.9 52.4212C449.9 50.5212 465.9 64.4212 472.7 79.3212Z" fill="#B8D8BA"/>
<path d="M184.175 373.318C187.497 377.187 189.365 380.591 189.78 383.531C190.195 386.47 189.433 389.496 187.494 392.611C190.866 391.166 193.973 390.87 196.816 391.725C199.658 392.579 202.741 394.941 206.063 398.81L221.697 417.019C224.042 419.751 226.517 421.251 229.12 421.52C231.799 421.723 234.505 420.653 237.236 418.308L239.285 416.549L251.206 430.433L244.605 436.101C237.549 442.159 230.702 445.006 224.064 444.643C217.425 444.28 211.272 440.798 205.605 434.198L187.918 413.599C186.42 411.854 184.825 410.917 183.133 410.788C181.516 410.594 179.912 411.181 178.318 412.549L174.563 415.774L162.641 401.89L166.397 398.665C167.99 397.297 168.813 395.799 168.866 394.172C168.995 392.48 168.31 390.762 166.812 389.017L149.125 368.418C143.458 361.817 140.947 355.208 141.592 348.591C142.237 341.974 146.088 335.637 153.144 329.578L159.744 323.911L171.666 337.795L169.617 339.554C166.886 341.899 165.418 344.412 165.214 347.091C165.086 349.705 166.195 352.378 168.54 355.109L184.175 373.318Z" fill="black"/>
<path d="M471.371 165.548C468.821 161.131 467.614 157.44 467.75 154.475C467.886 151.51 469.194 148.676 471.675 145.974C468.094 146.771 464.986 146.487 462.35 145.122C459.714 143.757 457.121 140.866 454.571 136.45L442.571 115.665C440.771 112.547 438.617 110.616 436.108 109.87C433.513 109.175 430.656 109.727 427.539 111.527L425.2 112.877L416.05 97.0289L423.585 92.6789C431.639 88.0289 438.894 86.4957 445.351 88.0794C451.808 89.6632 457.211 94.2222 461.561 101.757L475.136 125.269C476.286 127.261 477.681 128.477 479.32 128.916C480.873 129.405 482.559 129.125 484.377 128.075L488.664 125.6L497.814 141.448L493.527 143.923C491.709 144.973 490.623 146.293 490.27 147.882C489.831 149.521 490.186 151.337 491.336 153.328L504.911 176.841C509.261 184.375 510.508 191.335 508.651 197.718C506.794 204.102 501.839 209.619 493.785 214.269L486.25 218.619L477.1 202.771L479.439 201.421C482.556 199.621 484.463 197.423 485.158 194.827C485.767 192.282 485.172 189.45 483.371 186.333L471.371 165.548Z" fill="black"/>
<path d="M480.078 244.539C498.328 255.075 512.308 266.049 522.017 277.458C531.726 288.868 538.005 300.419 540.855 312.11C543.968 323.73 544.229 335.266 541.636 346.717C539.21 358.265 534.904 369.396 528.718 380.112C522.531 390.828 514.828 400.11 505.609 407.958C496.557 415.903 486.04 421.552 474.059 424.904C462.342 428.185 449.067 428.557 434.235 426.021C419.666 423.414 403.676 417.084 386.263 407.031L293.338 353.381L387.153 190.889L480.078 244.539ZM343.271 344.035L402.039 377.965C414.095 384.925 424.878 389.254 434.391 390.951C444.168 392.577 452.85 392.232 460.438 389.916C468.026 387.599 474.662 383.84 480.344 378.638C486.027 373.435 490.85 367.402 494.813 360.537C498.776 353.672 501.542 346.562 503.109 339.207C504.677 331.853 504.518 324.394 502.633 316.832C500.748 309.27 496.609 301.745 490.216 294.259C483.99 286.869 474.85 279.694 462.794 272.734L404.026 238.804L343.271 344.035Z" fill="black"/>
<rect x="246" y="300.121" width="37" height="37" rx="18.5" fill="black"/>
<path d="M177.463 147.918L105.874 178.942L180.548 201.289L182.135 228.744L75.2914 195.033L73.6408 166.481L175.888 120.684L177.463 147.918Z" fill="black"/>
</svg>
